<?xml version="1.0" encoding="utf-8"?>
<svg width="28" height="22" viewBox="0 0 28 22" fill="currentcolor" xmlns="http://www.w3.org/2000/svg">
  <path d="M 4.101 1.101 C 4.491 0.71 5.124 0.71 5.515 1.101 L 14 9.586 L 22.485 1.101 C 22.876 0.71 23.509 0.71 23.899 1.101 C 24.29 1.491 24.29 2.124 23.899 2.515 L 15.414 11 L 23.899 19.485 C 24.29 19.876 24.29 20.509 23.899 20.899 C 23.509 21.29 22.876 21.29 22.485 20.899 L 14 12.414 L 5.515 20.899 C 5.124 21.29 4.491 21.29 4.101 20.899 C 3.71 20.509 3.71 19.876 4.101 19.485 L 12.586 11 L 4.101 2.515 C 3.71 2.124 3.71 1.491 4.101 1.101 Z"/>
</svg>