<svg width="90" height="75" viewBox="0 0 90 75" fill="none" xmlns="http://www.w3.org/2000/svg">
  <path d="M29.223 66H44.777C55.7005 66 61.164 66 65.0875 63.3867C66.7804 62.2595 68.2385 60.8049 69.3785 59.1058C72 55.1947 72 49.744 72 38.8499C72 27.9521 72 22.505 69.3785 18.5939C68.2385 16.8947 66.7805 15.4401 65.0875 14.313C62.5675 12.6312 59.4105 12.0304 54.577 11.817C52.2705 11.817 50.286 10.0748 49.8345 7.81704C49.4895 6.16324 48.5929 4.68118 47.2965 3.62132C46 2.56146 44.3831 1.98882 42.719 2.00017H31.281C27.823 2.00017 24.8445 4.43572 24.1655 7.81704C23.714 10.0748 21.7295 11.817 19.423 11.817C14.593 12.0304 11.436 12.6348 8.9125 14.313C7.22067 15.4404 5.76381 16.895 4.625 18.5939C2 22.505 2 27.9521 2 38.8499C2 49.744 2 55.1911 4.6215 59.1058C5.7555 60.7982 7.2115 62.2525 8.9125 63.3867C12.836 66 18.2995 66 29.223 66Z" stroke="currentcolor" stroke-width="3"/>
  <circle cx="37" cy="38" r="12" stroke="currentcolor"  stroke-width="3"/>
  <circle cx="61" cy="24" r="3" fill="currentcolor" />

</svg>