<svg viewBox="0 0 20 21" fill="none" xmlns="http://www.w3.org/2000/svg">
<path d="M9 17.5H14.5C15.4283 17.5 16.3185 17.1313 16.9749 16.4749C17.6313 15.8185 18 14.9283 18 14C18 13.0717 17.6313 12.1815 16.9749 11.5251C16.3185 10.8687 15.4283 10.5 14.5 10.5H6.5C5.57174 10.5 4.6815 10.1313 4.02513 9.47487C3.36875 8.8185 3 7.92826 3 7C3 6.07174 3.36875 5.1815 4.02513 4.52513C4.6815 3.86875 5.57174 3.5 6.5 3.5H11M1 17.5C1 18.0304 1.21071 18.5391 1.58579 18.9142C1.96086 19.2893 2.46957 19.5 3 19.5C3.53043 19.5 4.03914 19.2893 4.41421 18.9142C4.78929 18.5391 5 18.0304 5 17.5C5 16.9696 4.78929 16.4609 4.41421 16.0858C4.03914 15.7107 3.53043 15.5 3 15.5C2.46957 15.5 1.96086 15.7107 1.58579 16.0858C1.21071 16.4609 1 16.9696 1 17.5ZM17 5.5C17.5304 5.5 18.0391 5.28929 18.4142 4.91421C18.7893 4.53914 19 4.03043 19 3.5C19 2.96957 18.7893 2.46086 18.4142 2.08579C18.0391 1.71071 17.5304 1.5 17 1.5C16.4696 1.5 15.9609 1.71071 15.5858 2.08579C15.2107 2.46086 15 2.96957 15 3.5C15 4.03043 15.2107 4.53914 15.5858 4.91421C15.9609 5.28929 16.4696 5.5 17 5.5Z" stroke="currentcolor" stroke-width="2" stroke-linecap="round" stroke-linejoin="round"/>
</svg> 