<?xml version="1.0" encoding="utf-8"?>
<svg width="36px" height="36px" viewBox="0 0 36 36" fill="none" xmlns="http://www.w3.org/2000/svg">
  <circle id="Ellipse 6" cx="18" cy="18" r="18" style="fill: url('#gradient-0');"/>
  <path d="M 9.5 18 C 9.5 17.172 10.172 16.5 11 16.5 L 16.5 16.5 L 16.5 11 C 16.5 10.172 17.172 9.5 18 9.5 C 18.828 9.5 19.5 10.172 19.5 11 L 19.5 16.5 L 25 16.5 C 25.828 16.5 26.5 17.172 26.5 18 C 26.5 18.828 25.828 19.5 25 19.5 L 19.5 19.5 L 19.5 25 C 19.5 25.828 18.828 26.5 18 26.5 C 17.172 26.5 16.5 25.828 16.5 25 L 16.5 19.5 L 11 19.5 C 10.172 19.5 9.5 18.828 9.5 18 Z" style="fill: rgba(0, 0, 0, 0.8); transform-box: fill-box; transform-origin: 50% 50%;" transform="matrix(0.707107, 0.707107, -0.707107, 0.707107, 0, 0)"/>
  <defs>
    <linearGradient gradientUnits="userSpaceOnUse" x1="18" y1="0" x2="18" y2="36" id="gradient-0">
      <stop offset="0" style="stop-color: rgb(100% 49.02% 49.02%)"/>
      <stop offset="1" style="stop-color: rgb(67.582% 19.72% 23.418%)"/>
    </linearGradient>
  </defs>
</svg>