<svg viewBox="0 0 100 90.34024972144611" class="looka-1j8o68f"><defs id="SvgjsDefs2441"></defs><g id="SvgjsG2442" featurekey="ghXSps-0" transform="matrix(0.22836261987686157,0,0,0.22836261987686157,-14.729389450549819,-19.502168706235956)" fill="#ffe98a">
<g xmlns="http://www.w3.org/2000/svg"><path d="M294.9,352.2c0,0-1.3-15.1-14.4-19.1l-13.3-29.9l18-14.6c1-0.8,1.4-1.9,1.5-3l16,4.2c0.3,0.1,0.6,0.1,0.8,0.1   c0.6,0,1.1-0.1,1.6-0.4c0.4-0.2,0.7-0.5,1-0.8l0.1-0.1c0,0,0-0.1,0-0.1l4-6.2c0.7-1.1,0.4-2.5-0.7-3.2c-1.1-0.7-2.5-0.4-3.2,0.7   l-2.4,3.7l-35.7-9.4c1-0.4,1.8-1,2.4-1.7c0.9-1.3,0.3-3.7-0.6-7.2c-1.2-4.6-2.9-10.9-0.7-15.4c1.3-2.7,0.4-5.2-0.6-7.9   c-0.9-2.5-1.9-5.1-1.4-8.3c0.5-4.1,1.2-4.7,2.9-6c1-0.8,2.4-2,4.3-4.3c4.1-5.2,1.7-15.2,0.6-19.1c5.4-3.8,34.6-25.2,37.3-42.4   c1.7-10.7-4.5-22.9-19-22.9c-17.7,0-19.2,18.2-19.2,18.2s-1.5-18.2-19.2-18.2c-14.5,0-20.6,12.2-19,22.9   c2.7,17.3,32.5,38.9,37.5,42.5c1,3.4,3.5,13.3-0.2,18c-1.7,2.2-3,3.2-4,4.1c-1.9,1.6-2.8,2.5-3.4,7c-0.5,3.6,0.6,6.5,1.5,9   c1,2.6,1.7,4.6,0.7,6.7c-2.4,5-0.7,11.6,0.6,16.5c0.3,1.1,0.6,2.2,0.8,3.1c-0.2-0.4-0.5-0.8-0.9-1c-1.1-0.7-2.5-0.4-3.2,0.7   l-4.1,6.4c-0.2,0.4-0.4,0.8-0.4,1.2c-0.2,1.6,0.8,3.1,2.4,3.5l15.8,4.2l-18.1,14.6l-75.4,4.9l-7.6-26.5l16.1,1.6c0.1,0,0.3,0,0.4,0   c2,0,3.7-1.5,3.9-3.6c0.2-2.2-1.4-4.1-3.6-4.3l-39.9-3.9c-2.2-0.2-4.1,1.4-4.3,3.6c-0.2,2.2,1.4,4.1,3.6,4.3l15.4,1.5l8.9,31.2   l-18,25.1c-19,0.5-20.6,20.1-20.6,20.1s-1.7-20.1-21.3-20.1c-16.1,0-22.9,13.5-21,25.4c3.3,21,42.4,47.7,42.4,47.7   s16.5-11.2,28.9-24.9L187,381c2.4,6.3,8.5,10.8,15.6,10.8c4.2,0,8.1-1.6,11-4.2l4.7,2.4l9.6-2.5c1.7-0.5,2.8-2.2,2.3-4   c-0.5-1.7-2.2-2.8-4-2.3l-7.2,1.9l-1.5-0.8c1.1-2.2,1.7-4.7,1.7-7.3c0-3.3-1-6.4-2.7-9l45-56.2l9.9,22.3   c-14.6,1.1-20.7,14-18.9,25.4c3.3,21,42.4,47.7,42.4,47.7s39.1-26.6,42.4-47.7c1.9-11.9-4.9-25.4-21-25.4   C296.5,332,294.9,352.2,294.9,352.2z M256.3,178.8c-0.3,0.3-0.6,0.5-0.9,0.6c-0.8,0.3-1.6,0.1-2.3-0.5   c-8.2-7.8-10.4-15.3-10.9-20.2c-0.5-5.5,1.1-9.1,1.1-9.3c0.5-1.1,1.8-1.7,3-1.2c1.1,0.5,1.6,1.8,1.2,3c0,0.1-1.2,3-0.8,7.4   c0.6,6,3.8,11.7,9.5,17.1C257.1,176.5,257.1,177.9,256.3,178.8z M269.2,270.8c0.2-0.4,0.3-0.8,0.4-1.1c0.1,0.8,0.1,1.4-0.1,1.7   c-0.3,0.4-0.7,0.7-1.3,1L269.2,270.8z M167.6,373.5l-0.1,0.9l-27.1-2.1l0.7,0.8l0,0l12.5,13.5l-0.7,0.6l-13.2-14.3v26.6h-0.9V373   l-13.9,15.5l-0.7-0.6l13.9-15.4l-26.8,4l-0.1-0.9l26.5-3.9L104.8,357l0.4-0.8l32.2,14.3l-26.5-28.7l0.7-0.6l26.3,28.5l-13.1-32.4   l0.9-0.3l13.6,33.6l12.5-33.6l0.9,0.3l-12.1,32.6l29.9-31.3l0.7,0.6l-29.9,31.3l37.2-15.7l0.4,0.8l-37.5,15.8L167.6,373.5z    M186,373.6l-11.4-0.4c3.9-5.3,6.8-10.6,7.6-15.7c1.5-9.7-2.7-20.4-12.9-24.1l12-16.7l12.5,44.3C189.4,363.7,186.4,368.3,186,373.6   z M194.6,364.7l2.6,9.2l-7.7-0.2C190,370,191.9,366.8,194.6,364.7z M202.6,388.1c-5,0-9.4-2.8-11.6-7l11,0.4l8.1,4.2   C207.9,387.2,205.4,388.1,202.6,388.1z M202.1,362c0.2,0,0.3,0,0.4,0c2.5,0,4.8,0.7,6.8,1.9l-4.9,6.3L202.1,362z M214.3,380.7   l-6.7-3.5l6.5-8.1c0.9,1.8,1.5,3.8,1.5,6C215.6,377.1,215.2,379,214.3,380.7z M211.6,361.1c-2.6-1.7-5.7-2.7-9-2.7   c-0.5,0-1,0-1.4,0.1l-13.4-47.6l66.5-4.4L211.6,361.1z M327.8,340.2l-29.9,31.3l37.2-15.7l0.4,0.8l-37.5,15.8l26.4,2l-0.1,0.9   l-27.1-2.1l0.7,0.8l0,0l12.5,13.5l-0.7,0.6l-13.2-14.3v26.6h-0.9v-26.6l-13.9,15.5l-0.7-0.6l13.9-15.4l-26.8,4l-0.1-0.9l26.5-3.9   L261.6,358l0.4-0.8l32.2,14.3l-26.5-28.7l0.7-0.6l26.3,28.5l-13.1-32.4l0.9-0.3l13.6,33.6l12.5-33.6l0.9,0.3l-12.1,32.6l29.9-31.3   L327.8,340.2z"></path><path d="M371,217.6c0.1,0,0.1,0,0.2,0c15.7,0,30.5,6.9,44.1,20.5c14.5,14.5,29.4,21.8,44.4,21.8c1.1,0,2.1,0,3.2-0.1   c23.8-1.6,38.9-21.1,39.5-22l-3.7-2.8c-0.1,0.2-14.4,18.7-36.1,20.2c-14.7,1-29.5-5.8-44.1-20.4C404,220.4,388.1,213,371.2,213   c-0.1,0-0.1,0-0.2,0c-3.2,0-6.2,0.3-9.2,0.7c0.9-1.3,2-2.4,3.2-3.5v-21.1c-3.6-3.2-6.2-7.6-7-12.6c4.1-1,8.5-1.6,13.1-1.6   c0,0,0.1,0,0.1,0c15.7,0,30.5,6.9,44.1,20.5c14.5,14.5,29.4,21.8,44.4,21.8c1.1,0,2.1,0,3.2-0.1c23.8-1.6,38.8-21.1,39.5-22   l-3.7-2.8c-0.1,0.2-14.4,18.7-36.2,20.2c-14.7,1-29.5-5.9-44-20.4c-14.5-14.5-30.4-21.8-47.3-21.8c-0.1,0-0.1,0-0.2,0   c-4.6,0-9.1,0.6-13.3,1.5c0.3-6,3.1-11.4,7.3-15.1v-22.6c-4.5-3.9-7.3-8.5-7.3-14.9s2.8-11.4,7.3-15.3V85.4h-24.2   C337,90,331.1,93,324.5,93c-6.6,0-12.4-2.9-16.4-7.6h-23.1c-3.9,4.6-9.8,7.6-16.4,7.6c-6.6,0-12.4-2.9-16.4-7.6H230   c-3.9,4.6-9.8,7.6-16.4,7.6c-6.6,0-12.4-2.9-16.4-7.6h-20.7c-3.9,4.6-9.8,7.6-16.4,7.6c-6.6,0-12.4-2.9-16.4-7.6h-20.9   c-3.9,4.6-11.8,8.7-18.3,8.7c-6.6,0-14.7-4-18.7-8.7H64.5v17.2c4,3.9,6.4,9.3,6.4,15.3s-2.5,11.4-6.4,15.3v24.3   c4,3.9,6.4,9.3,6.4,15.3s-2.5,11.4-6.4,15.3v22.8c4,3.9,6.4,9.3,6.4,15.3s-2.5,11.4-6.4,15.3v23c4,3.9,6.4,9.3,6.4,15.3   c0,6-2.5,11.4-6.4,15.3v24.2c4,3.9,6.4,9.3,6.4,15.3c0,6-2.5,11.4-6.4,15.3v24.2c4,3.9,6.4,9.3,6.4,15.3s-2.5,11.4-6.4,15.3v24.1   c4,3.9,6.4,9.3,6.4,15.3c0,6-2.4,9.9-6.4,13.8v23.1H90c3.9-4.6,9.8-7.6,16.4-7.6c6.6,0,12.4,2.9,16.4,7.6h20.9   c3.9-4.6,9.8-7.6,16.4-7.6c6.6,0,12.4,2.9,16.4,7.6h20.7c3.9-4.6,9.8-7.6,16.4-7.6c6.6,0,12.4,2.9,16.4,7.6h22.3   c3.9-4.6,9.8-7.6,16.4-7.6c6.6,0,12.4,2.9,16.4,7.6h23.1c3.9-4.6,9.1-7.6,15.7-7.6s12.1,2.9,16,7.6h25.3v-19.3   c-4.5-3.9-7.4-9.7-7.4-16.2s2.8-12.3,7.4-16.2v-23.8c-4.5-3.9-7.4-9.7-7.4-16.2s2.8-12.3,7.4-16.2v-22.5c-4.5-3.9-7.4-9.7-7.4-16.2   c0-6.5,2.8-12.3,7.4-16.2v-22.5c-4.5-3.9-7.4-9.7-7.4-16.2c0-5.9,2.4-11.2,6.2-15.1c2.3-0.3,4.7-0.5,7.1-0.5   c15.7,0,30.6,6.8,44.2,20.5c14.5,14.5,29.4,21.8,44.4,21.8c1.1,0,2.1,0,3.2-0.1c23.8-1.6,38.9-21.1,39.5-22l-3.7-2.8   c-0.1,0.2-14.4,18.7-36.1,20.2c-14.7,1-29.5-5.8-44.1-20.4C404,267.3,388.1,260,371.2,260c-0.1,0-0.1,0-0.2,0c-2,0-4,0.1-6,0.3   v-17.6c-4.5-3.9-7.4-9.7-7.4-16.2c0-2.6,0.5-5.2,1.4-7.5C362.9,218.1,366.9,217.6,371,217.6z M351.3,263.3   c-18,5.9-30,17.9-30.7,18.5l3.3,3.2c0.1-0.1,11.1-11,27.4-16.9v199.5h-273V99.2h273v74.5c-18,5.9-30,17.9-30.7,18.5l3.3,3.2   c0.1-0.1,11.1-11,27.4-16.9v37.7c-18,5.9-30,17.9-30.7,18.5l3.3,3.2c0.1-0.1,11.1-11,27.4-16.9V263.3z"></path></g></g>
</svg>