<?xml version="1.0" encoding="utf-8"?>
<svg viewBox="0 0 640 480" xmlns="http://www.w3.org/2000/svg">
  <g transform="matrix(1, 0, 0, 1, 15.01017761230463, -11.22650146484375)">
    <path d="M 146.973 225.907 C 167.118 185.943 187.262 185.943 207.407 225.907 L 243.988 298.475 L 244.015 298.421 L 276.828 363.51 C 278.449 366.725 282.37 368.018 285.585 366.398 C 288.801 364.777 290.094 360.855 288.473 357.639 L 251.317 283.935 L 331.423 125.02 C 361.701 64.955 391.979 64.955 422.256 125.02 L 528.886 336.554 C 559.164 396.619 544.025 426.652 483.47 426.652 L 270.209 426.652 C 263.876 426.652 257.919 426.607 252.32 426.518 C 250.963 426.569 249.568 426.594 248.135 426.594 L 106.245 426.594 C 65.955 426.594 55.882 406.612 76.027 366.648 Z" style="fill: rgb(216, 216, 216); stroke-width: 10px;"/>
    <ellipse style="fill: rgb(216, 216, 216);" cx="176.156" cy="107.819" rx="32.018" ry="32.018"/>
  </g>
  <rect style="fill: none; stroke: rgb(216, 216, 216); stroke-width: 2px;" width="637.882" height="477.051" rx="12" ry="12" x="1.059" y="1.475"/>
</svg>