<?xml version="1.0" encoding="utf-8"?>
<svg viewBox="0 0 22 28" fill="none" xmlns="http://www.w3.org/2000/svg">
  <defs>
    <linearGradient id="paint0_linear_139_514" x1="-0.98324" y1="-1.39683e-05" x2="22.5073" y2="0.433154" gradientUnits="userSpaceOnUse">
      <stop stop-color="#b0f1ff"/>
      <stop offset="0.5563" stop-color="#28b086"/>
      <stop offset="1" stop-color="#00b7b7"/>
    </linearGradient>
  </defs>
  <g transform="matrix(0.9999999999999999, 0, 0, 0.9999999999999999, 0, 0)">
    <path d="M11 0C13.9174 0 16.7153 1.21164 18.7782 3.36836C20.8411 5.52508 22 8.45023 22 11.5003C22 16.3599 18.7338 21.6559 12.2862 27.445C11.9276 27.767 11.4705 27.9439 10.9979 27.9434C10.5252 27.943 10.0684 27.7653 9.71046 27.4427L9.284 27.0558C3.12174 21.4177 0 16.2514 0 11.5003C0 8.45023 1.15893 5.52508 3.22183 3.36836C5.28473 1.21164 8.08262 0 11 0ZM11 7.07711C9.87793 7.07711 8.80182 7.54312 8.0084 8.37263C7.21497 9.20214 6.76923 10.3272 6.76923 11.5003C6.76923 12.6734 7.21497 13.7985 8.0084 14.628C8.80182 15.4575 9.87793 15.9235 11 15.9235C12.1221 15.9235 13.1982 15.4575 13.9916 14.628C14.785 13.7985 15.2308 12.6734 15.2308 11.5003C15.2308 10.3272 14.785 9.20214 13.9916 8.37263C13.1982 7.54312 12.1221 7.07711 11 7.07711Z" fill="url(#paint0_linear_139_514)"/>
    <ellipse style="fill: #79529d;" cx="11" cy="11.527" rx="4.25" ry="4.515"/>
  </g>
</svg>